<svg width="164" height="124" viewBox="0 0 164 124" fill="none" xmlns="http://www.w3.org/2000/svg">
<path d="M37.856 45.576C34.944 45.576 32.288 44.984 29.888 43.8C27.52 42.616 25.632 40.856 24.224 38.52C22.816 36.152 22.112 33.192 22.112 29.64C22.112 26.152 22.832 23.192 24.272 20.76C25.712 18.296 27.6 16.424 29.936 15.144C32.304 13.864 34.88 13.224 37.664 13.224C39.968 13.224 41.968 13.64 43.664 14.472C45.36 15.304 46.752 16.264 47.84 17.352L43.52 22.632C42.752 21.96 41.936 21.416 41.072 21C40.24 20.552 39.2 20.328 37.952 20.328C35.84 20.328 34.08 21.128 32.672 22.728C31.264 24.328 30.56 26.536 30.56 29.352C30.56 32.296 31.216 34.552 32.528 36.12C33.872 37.688 35.936 38.472 38.72 38.472C39.744 38.472 40.544 38.28 41.12 37.896V33.576H36.512V26.856H48.416V41.736C47.328 42.792 45.84 43.704 43.952 44.472C42.096 45.208 40.064 45.576 37.856 45.576ZM62.0825 29.832L61.5545 31.992H67.3145L66.7865 29.832C66.4025 28.36 66.0185 26.744 65.6345 24.984C65.2505 23.192 64.8665 21.512 64.4825 19.944H64.2905C63.9705 21.544 63.6185 23.224 63.2345 24.984C62.8505 26.744 62.4665 28.36 62.0825 29.832ZM70.3385 45L68.8025 38.376H60.0665L58.5305 45H50.0825L59.5865 13.8H69.5705L79.0745 45H70.3385ZM82.0498 45V13.8H90.8818L95.5858 26.568C95.8738 27.432 96.1458 28.344 96.4018 29.304C96.6578 30.232 96.9298 31.144 97.2178 32.04H97.4098C97.6978 31.144 97.9698 30.232 98.2258 29.304C98.4818 28.344 98.7538 27.432 99.0418 26.568L103.554 13.8H112.386V45H104.898V35.784C104.898 34.184 105.026 32.328 105.282 30.216C105.538 28.072 105.762 26.216 105.954 24.648H105.762L103.17 32.136L99.3298 42.456H94.9138L91.0738 32.136L88.5778 24.648H88.3858C88.5778 26.216 88.8018 28.072 89.0578 30.216C89.3138 32.328 89.4418 34.184 89.4418 35.784V45H82.0498ZM119.315 45V13.8H139.475V20.712H127.571V25.608H137.747V32.52H127.571V38.088H139.955V45H119.315Z" fill="white"/>
<mask id="path-2-outside-1_145_5" maskUnits="userSpaceOnUse" x="1" y="73" width="161" height="37" fill="black">
<rect fill="white" x="1" y="73" width="161" height="37"/>
<path d="M3.456 107V75.8H12.672C17.408 75.8 21.264 77 24.24 79.4C27.216 81.8 28.704 85.752 28.704 91.256C28.704 96.76 27.232 100.76 24.288 103.256C21.376 105.752 17.664 107 13.152 107H3.456ZM11.712 100.376H12.192C14.432 100.376 16.336 99.768 17.904 98.552C19.472 97.336 20.256 94.904 20.256 91.256C20.256 87.608 19.472 85.224 17.904 84.104C16.336 82.984 14.432 82.424 12.192 82.424H11.712V100.376ZM34.2529 107V75.8H54.4129V82.712H42.5089V87.608H52.6849V94.52H42.5089V100.088H54.8929V107H34.2529ZM70.8128 107.576C68.8288 107.576 66.7808 107.208 64.6688 106.472C62.5568 105.736 60.6688 104.616 59.0048 103.112L63.7088 97.448C64.7968 98.344 65.9968 99.08 67.3088 99.656C68.6208 100.2 69.8528 100.472 71.0048 100.472C73.3728 100.472 74.5568 99.736 74.5568 98.264C74.5568 97.528 74.1728 96.984 73.4048 96.632C72.6688 96.248 71.6448 95.784 70.3328 95.24L66.4448 93.608C64.7488 92.936 63.2768 91.88 62.0288 90.44C60.7808 89 60.1568 87.16 60.1568 84.92C60.1568 82.264 61.2448 79.992 63.4208 78.104C65.5968 76.184 68.3808 75.224 71.7728 75.224C73.5648 75.224 75.3728 75.576 77.1968 76.28C79.0528 76.952 80.7008 77.992 82.1407 79.4L78.0128 84.584C76.9568 83.848 75.9328 83.288 74.9408 82.904C73.9808 82.52 72.9248 82.328 71.7728 82.328C69.5968 82.328 68.5088 83.032 68.5088 84.44C68.5088 85.176 68.9248 85.752 69.7568 86.168C70.5888 86.552 71.7088 87.016 73.1168 87.56L76.9088 89.048C78.8608 89.816 80.3648 90.888 81.4208 92.264C82.4768 93.64 83.0048 95.416 83.0048 97.592C83.0048 100.216 81.9488 102.536 79.8368 104.552C77.7248 106.568 74.7168 107.576 70.8128 107.576ZM88.0185 107V75.8H96.2745V107H88.0185ZM117.606 107.576C114.694 107.576 112.038 106.984 109.638 105.8C107.27 104.616 105.382 102.856 103.974 100.52C102.566 98.152 101.862 95.192 101.862 91.64C101.862 88.152 102.582 85.192 104.022 82.76C105.462 80.296 107.35 78.424 109.686 77.144C112.054 75.864 114.63 75.224 117.414 75.224C119.718 75.224 121.718 75.64 123.414 76.472C125.11 77.304 126.502 78.264 127.59 79.352L123.27 84.632C122.502 83.96 121.686 83.416 120.822 83C119.99 82.552 118.95 82.328 117.702 82.328C115.59 82.328 113.83 83.128 112.422 84.728C111.014 86.328 110.31 88.536 110.31 91.352C110.31 94.296 110.966 96.552 112.278 98.12C113.622 99.688 115.686 100.472 118.47 100.472C119.494 100.472 120.294 100.28 120.87 99.896V95.576H116.262V88.856H128.166V103.736C127.078 104.792 125.59 105.704 123.702 106.472C121.846 107.208 119.814 107.576 117.606 107.576ZM134.237 107V75.8H142.685L149.597 89.72L152.573 96.728H152.765C152.573 95.064 152.349 93.144 152.093 90.968C151.837 88.792 151.709 86.744 151.709 84.824V75.8H159.581V107H151.133L144.221 93.032L141.245 86.072H141.053C141.245 87.864 141.469 89.816 141.725 91.928C141.981 94.04 142.109 96.056 142.109 97.976V107H134.237Z"/>
</mask>
<path d="M3.456 107H1.456V109H3.456V107ZM3.456 75.8V73.8H1.456V75.8H3.456ZM24.24 79.4L22.9845 80.9568L24.24 79.4ZM24.288 103.256L22.9946 101.73L22.9864 101.737L24.288 103.256ZM11.712 100.376H9.712V102.376H11.712V100.376ZM17.904 98.552L19.1296 100.132L17.904 98.552ZM17.904 84.104L19.0665 82.4765L17.904 84.104ZM11.712 82.424V80.424H9.712V82.424H11.712ZM5.456 107V75.8H1.456V107H5.456ZM3.456 77.8H12.672V73.8H3.456V77.8ZM12.672 77.8C17.0632 77.8 20.4425 78.9068 22.9845 80.9568L25.4955 77.8432C22.0855 75.0932 17.7528 73.8 12.672 73.8V77.8ZM22.9845 80.9568C25.3099 82.8322 26.704 86.0802 26.704 91.256H30.704C30.704 85.4238 29.1221 80.7678 25.4955 77.8432L22.9845 80.9568ZM26.704 91.256C26.704 96.4315 25.3246 99.7551 22.9946 101.73L25.5814 104.782C29.1394 101.765 30.704 97.0885 30.704 91.256H26.704ZM22.9864 101.737C20.499 103.87 17.2753 105 13.152 105V109C18.0527 109 22.253 107.634 25.5896 104.775L22.9864 101.737ZM13.152 105H3.456V109H13.152V105ZM11.712 102.376H12.192V98.376H11.712V102.376ZM12.192 102.376C14.8156 102.376 17.1662 101.655 19.1296 100.132L16.6784 96.9716C15.5058 97.8809 14.0484 98.376 12.192 98.376V102.376ZM19.1296 100.132C21.4729 98.3152 22.256 95.0343 22.256 91.256H18.256C18.256 94.7737 17.4711 96.3568 16.6784 96.9716L19.1296 100.132ZM22.256 91.256C22.256 87.5048 21.4842 84.2035 19.0665 82.4765L16.7415 85.7315C17.4598 86.2445 18.256 87.7112 18.256 91.256H22.256ZM19.0665 82.4765C17.1065 81.0765 14.7789 80.424 12.192 80.424V84.424C14.0851 84.424 15.5655 84.8915 16.7415 85.7315L19.0665 82.4765ZM12.192 80.424H11.712V84.424H12.192V80.424ZM9.712 82.424V100.376H13.712V82.424H9.712ZM34.2529 107H32.2529V109H34.2529V107ZM34.2529 75.8V73.8H32.2529V75.8H34.2529ZM54.4129 75.8H56.4129V73.8H54.4129V75.8ZM54.4129 82.712V84.712H56.4129V82.712H54.4129ZM42.5089 82.712V80.712H40.5089V82.712H42.5089ZM42.5089 87.608H40.5089V89.608H42.5089V87.608ZM52.6849 87.608H54.6849V85.608H52.6849V87.608ZM52.6849 94.52V96.52H54.6849V94.52H52.6849ZM42.5089 94.52V92.52H40.5089V94.52H42.5089ZM42.5089 100.088H40.5089V102.088H42.5089V100.088ZM54.8929 100.088H56.8929V98.088H54.8929V100.088ZM54.8929 107V109H56.8929V107H54.8929ZM36.2529 107V75.8H32.2529V107H36.2529ZM34.2529 77.8H54.4129V73.8H34.2529V77.8ZM52.4129 75.8V82.712H56.4129V75.8H52.4129ZM54.4129 80.712H42.5089V84.712H54.4129V80.712ZM40.5089 82.712V87.608H44.5089V82.712H40.5089ZM42.5089 89.608H52.6849V85.608H42.5089V89.608ZM50.6849 87.608V94.52H54.6849V87.608H50.6849ZM52.6849 92.52H42.5089V96.52H52.6849V92.52ZM40.5089 94.52V100.088H44.5089V94.52H40.5089ZM42.5089 102.088H54.8929V98.088H42.5089V102.088ZM52.8929 100.088V107H56.8929V100.088H52.8929ZM54.8929 105H34.2529V109H54.8929V105ZM59.0047 103.112L57.4662 101.834L56.2408 103.31L57.6637 104.596L59.0047 103.112ZM63.7088 97.448L64.9802 95.9041L63.4427 94.638L62.1702 96.1702L63.7088 97.448ZM67.3088 99.656L66.5048 101.487L66.5237 101.496L66.5427 101.503L67.3088 99.656ZM73.4048 96.632L72.4796 98.4052L72.525 98.4288L72.5714 98.4501L73.4048 96.632ZM70.3327 95.24L69.5587 97.0841L69.5667 97.0875L70.3327 95.24ZM66.4447 93.608L67.2188 91.7639L67.2002 91.7561L67.1815 91.7486L66.4447 93.608ZM62.0288 90.44L63.5401 89.1301L63.5401 89.1301L62.0288 90.44ZM63.4207 78.104L64.7315 79.6146L64.7377 79.6092L64.744 79.6037L63.4207 78.104ZM77.1967 76.28L76.4766 78.1458L76.4962 78.1534L76.5159 78.1605L77.1967 76.28ZM82.1407 79.4L83.7053 80.6459L84.8305 79.2328L83.539 77.97L82.1407 79.4ZM78.0127 84.584L76.8692 86.2248L78.4085 87.2977L79.5773 85.8299L78.0127 84.584ZM74.9408 82.904L74.198 84.761L74.2083 84.7651L74.2188 84.7691L74.9408 82.904ZM69.7568 86.168L68.8623 87.9569L68.8903 87.9708L68.9186 87.9839L69.7568 86.168ZM73.1168 87.56L73.8473 85.6982L73.8375 85.6944L73.1168 87.56ZM76.9088 89.048L77.641 87.1869L77.6393 87.1862L76.9088 89.048ZM79.8368 104.552L81.2177 105.999L79.8368 104.552ZM70.8128 105.576C69.0794 105.576 67.2539 105.255 65.3269 104.583L64.0106 108.361C66.3076 109.161 68.5781 109.576 70.8128 109.576V105.576ZM65.3269 104.583C63.4681 103.936 61.8121 102.954 60.3458 101.628L57.6637 104.596C59.5254 106.278 61.6454 107.536 64.0106 108.361L65.3269 104.583ZM60.5433 104.39L65.2473 98.7258L62.1702 96.1702L57.4662 101.834L60.5433 104.39ZM62.4373 98.9919C63.6696 100.007 65.0273 100.839 66.5048 101.487L68.1127 97.8247C66.9662 97.3214 65.9239 96.6814 64.9802 95.9041L62.4373 98.9919ZM66.5427 101.503C68.0427 102.125 69.5364 102.472 71.0048 102.472V98.472C70.1691 98.472 69.1988 98.2746 68.0748 97.8085L66.5427 101.503ZM71.0048 102.472C72.3311 102.472 73.6645 102.278 74.7246 101.619C75.9423 100.862 76.5567 99.6446 76.5567 98.264H72.5567C72.5567 98.36 72.5391 98.3465 72.5722 98.2848C72.6078 98.2183 72.6458 98.201 72.6129 98.2214C72.489 98.2985 72.0464 98.472 71.0048 98.472V102.472ZM76.5567 98.264C76.5567 97.5285 76.3578 96.7954 75.9027 96.1506C75.4594 95.5226 74.8581 95.098 74.2381 94.8139L72.5714 98.4501C72.7194 98.5179 72.6942 98.5414 72.6348 98.4574C72.6059 98.4163 72.5829 98.3688 72.5691 98.3227C72.5558 98.2784 72.5567 98.2551 72.5567 98.264H76.5567ZM74.3299 94.8588C73.5183 94.4354 72.4327 93.9456 71.0988 93.3925L69.5667 97.0875C70.8568 97.6224 71.8192 98.0606 72.4796 98.4052L74.3299 94.8588ZM71.1068 93.3959L67.2188 91.7639L65.6707 95.4521L69.5587 97.0841L71.1068 93.3959ZM67.1815 91.7486C65.7975 91.2003 64.5875 90.3386 63.5401 89.1301L60.5174 91.7499C61.966 93.4214 63.7 94.6717 65.708 95.4674L67.1815 91.7486ZM63.5401 89.1301C62.6611 88.1159 62.1567 86.7679 62.1567 84.92H58.1567C58.1567 87.5521 58.9004 89.8841 60.5174 91.7499L63.5401 89.1301ZM62.1567 84.92C62.1567 82.8969 62.9514 81.1591 64.7315 79.6146L62.11 76.5934C59.5381 78.8249 58.1567 81.6311 58.1567 84.92H62.1567ZM64.744 79.6037C66.4941 78.0594 68.7809 77.224 71.7728 77.224V73.224C67.9806 73.224 64.6994 74.3086 62.0975 76.6043L64.744 79.6037ZM71.7728 77.224C73.297 77.224 74.8614 77.5224 76.4766 78.1458L77.9169 74.4142C75.8841 73.6296 73.8325 73.224 71.7728 73.224V77.224ZM76.5159 78.1605C78.0978 78.7333 79.5025 79.6175 80.7425 80.83L83.539 77.97C81.899 76.3665 80.0077 75.1707 77.8776 74.3995L76.5159 78.1605ZM80.5762 78.1541L76.4482 83.3381L79.5773 85.8299L83.7053 80.6459L80.5762 78.1541ZM79.1563 82.9432C77.9957 82.1342 76.831 81.4911 75.6627 81.0389L74.2188 84.7691C75.0345 85.0849 75.9179 85.5618 76.8692 86.2248L79.1563 82.9432ZM75.6835 81.047C74.4618 80.5583 73.1502 80.328 71.7728 80.328V84.328C72.6993 84.328 73.4997 84.4817 74.198 84.761L75.6835 81.047ZM71.7728 80.328C70.5331 80.328 69.2581 80.5169 68.2383 81.1769C67.0684 81.9338 66.5088 83.1274 66.5088 84.44H70.5088C70.5088 84.3478 70.5254 84.3646 70.4907 84.4319C70.4525 84.5061 70.405 84.5392 70.4113 84.5351C70.431 84.5224 70.53 84.466 70.7664 84.415C71.0015 84.3643 71.3304 84.328 71.7728 84.328V80.328ZM66.5088 84.44C66.5088 86.1457 67.5659 87.3087 68.8623 87.9569L70.6512 84.3791C70.4377 84.2724 70.4119 84.2112 70.4421 84.253C70.4586 84.2758 70.4788 84.3122 70.4932 84.3575C70.5074 84.4022 70.5088 84.4332 70.5088 84.44H66.5088ZM68.9186 87.9839C69.8058 88.3934 70.9701 88.8747 72.396 89.4256L73.8375 85.6944C72.4474 85.1573 71.3717 84.7106 70.5949 84.3521L68.9186 87.9839ZM72.3862 89.4218L76.1782 90.9098L77.6393 87.1862L73.8473 85.6982L72.3862 89.4218ZM76.1765 90.9091C77.8615 91.5721 79.0414 92.4487 79.8341 93.4816L83.0074 91.0464C81.6881 89.3273 79.86 88.0599 77.641 87.1869L76.1765 90.9091ZM79.8341 93.4816C80.5601 94.4276 81.0048 95.7424 81.0048 97.592H85.0048C85.0048 95.0896 84.3934 92.8524 83.0074 91.0464L79.8341 93.4816ZM81.0048 97.592C81.0048 99.605 80.2216 101.42 78.4558 103.105L81.2177 105.999C83.6759 103.652 85.0048 100.827 85.0048 97.592H81.0048ZM78.4558 103.105C76.8271 104.66 74.3801 105.576 70.8128 105.576V109.576C75.0534 109.576 78.6224 108.476 81.2177 105.999L78.4558 103.105ZM88.0185 107H86.0185V109H88.0185V107ZM88.0185 75.8V73.8H86.0185V75.8H88.0185ZM96.2745 75.8H98.2745V73.8H96.2745V75.8ZM96.2745 107V109H98.2745V107H96.2745ZM90.0185 107V75.8H86.0185V107H90.0185ZM88.0185 77.8H96.2745V73.8H88.0185V77.8ZM94.2745 75.8V107H98.2745V75.8H94.2745ZM96.2745 105H88.0185V109H96.2745V105ZM109.638 105.8L108.744 107.589L108.753 107.594L109.638 105.8ZM103.974 100.52L102.255 101.542L102.261 101.552L103.974 100.52ZM104.022 82.76L105.743 83.779L105.749 83.7691L104.022 82.76ZM109.686 77.144L108.735 75.3846L108.725 75.39L109.686 77.144ZM123.414 76.472L124.295 74.6764V74.6764L123.414 76.472ZM127.59 79.352L129.138 80.6185L130.284 79.2176L129.004 77.9378L127.59 79.352ZM123.27 84.632L121.953 86.1372L123.509 87.4985L124.818 85.8985L123.27 84.632ZM120.822 83L119.874 84.7609L119.914 84.7824L119.954 84.802L120.822 83ZM112.422 84.728L110.921 83.4067V83.4067L112.422 84.728ZM112.278 98.12L110.744 99.4034L110.752 99.4126L110.759 99.4216L112.278 98.12ZM120.87 99.896L121.979 101.56L122.87 100.966V99.896H120.87ZM120.87 95.576H122.87V93.576H120.87V95.576ZM116.262 95.576H114.262V97.576H116.262V95.576ZM116.262 88.856V86.856H114.262V88.856H116.262ZM128.166 88.856H130.166V86.856H128.166V88.856ZM128.166 103.736L129.559 105.171L130.166 104.582V103.736H128.166ZM123.702 106.472L124.439 108.331L124.447 108.328L124.456 108.325L123.702 106.472ZM117.606 105.576C114.973 105.576 112.624 105.043 110.523 104.006L108.753 107.594C111.452 108.925 114.415 109.576 117.606 109.576V105.576ZM110.532 104.011C108.514 103.002 106.906 101.509 105.687 99.4876L102.261 101.552C103.858 104.203 106.026 106.23 108.744 107.589L110.532 104.011ZM105.693 99.4978C104.515 97.5164 103.862 94.9343 103.862 91.64H99.862C99.862 95.4497 100.617 98.7876 102.255 101.542L105.693 99.4978ZM103.862 91.64C103.862 88.4271 104.524 85.8378 105.743 83.779L102.301 81.741C100.64 84.5462 99.862 87.8769 99.862 91.64H103.862ZM105.749 83.7691C107.019 81.595 108.652 79.9912 110.647 78.8979L108.725 75.39C106.048 76.8568 103.905 78.997 102.295 81.7509L105.749 83.7691ZM110.637 78.9034C112.703 77.7868 114.95 77.224 117.414 77.224V73.224C114.31 73.224 111.405 73.9412 108.735 75.3846L110.637 78.9034ZM117.414 77.224C119.479 77.224 121.165 77.5964 122.533 78.2676L124.295 74.6764C122.271 73.6836 119.957 73.224 117.414 73.224V77.224ZM122.533 78.2676C124.075 79.0239 125.274 79.8646 126.176 80.7662L129.004 77.9378C127.73 76.6634 126.145 75.5841 124.295 74.6764L122.533 78.2676ZM126.042 78.0855L121.722 83.3655L124.818 85.8985L129.138 80.6185L126.042 78.0855ZM124.587 83.1268C123.692 82.3437 122.726 81.6971 121.69 81.198L119.954 84.802C120.646 85.1349 121.312 85.5763 121.953 86.1372L124.587 83.1268ZM121.77 81.2391C120.568 80.5919 119.179 80.328 117.702 80.328V84.328C118.721 84.328 119.412 84.5121 119.874 84.7609L121.77 81.2391ZM117.702 80.328C115.009 80.328 112.704 81.3798 110.921 83.4067L113.923 86.0493C114.956 84.8762 116.171 84.328 117.702 84.328V80.328ZM110.921 83.4067C109.1 85.4758 108.31 88.2085 108.31 91.352H112.31C112.31 88.8635 112.928 87.1802 113.923 86.0493L110.921 83.4067ZM108.31 91.352C108.31 94.5632 109.023 97.3462 110.744 99.4034L113.812 96.8366C112.909 95.7578 112.31 94.0288 112.31 91.352H108.31ZM110.759 99.4216C112.604 101.573 115.317 102.472 118.47 102.472V98.472C116.055 98.472 114.64 97.8028 113.797 96.8184L110.759 99.4216ZM118.47 102.472C119.71 102.472 120.953 102.245 121.979 101.56L119.761 98.2319C119.635 98.3153 119.278 98.472 118.47 98.472V102.472ZM122.87 99.896V95.576H118.87V99.896H122.87ZM120.87 93.576H116.262V97.576H120.87V93.576ZM118.262 95.576V88.856H114.262V95.576H118.262ZM116.262 90.856H128.166V86.856H116.262V90.856ZM126.166 88.856V103.736H130.166V88.856H126.166ZM126.773 102.301C125.921 103.128 124.676 103.917 122.948 104.619L124.456 108.325C126.504 107.491 128.235 106.456 129.559 105.171L126.773 102.301ZM122.965 104.613C121.367 105.246 119.588 105.576 117.606 105.576V109.576C120.04 109.576 122.325 109.17 124.439 108.331L122.965 104.613ZM134.237 107H132.237V109H134.237V107ZM134.237 75.8V73.8H132.237V75.8H134.237ZM142.685 75.8L144.477 74.9105L143.925 73.8H142.685V75.8ZM149.597 89.72L151.438 88.9383L151.415 88.8836L151.389 88.8305L149.597 89.72ZM152.573 96.728L150.732 97.5097L151.25 98.728H152.573V96.728ZM152.765 96.728V98.728H155.009L154.752 96.4987L152.765 96.728ZM152.093 90.968L154.08 90.7343V90.7343L152.093 90.968ZM151.709 75.8V73.8H149.709V75.8H151.709ZM159.581 75.8H161.581V73.8H159.581V75.8ZM159.581 107V109H161.581V107H159.581ZM151.133 107L149.341 107.887L149.891 109H151.133V107ZM144.221 93.032L142.382 93.8183L142.404 93.8693L142.429 93.919L144.221 93.032ZM141.245 86.072L143.084 85.2857L142.565 84.072H141.245V86.072ZM141.053 86.072V84.072H138.828L139.065 86.2851L141.053 86.072ZM141.725 91.928L139.74 92.1687L141.725 91.928ZM142.109 107V109H144.109V107H142.109ZM136.237 107V75.8H132.237V107H136.237ZM134.237 77.8H142.685V73.8H134.237V77.8ZM140.894 76.6895L147.806 90.6095L151.389 88.8305L144.477 74.9105L140.894 76.6895ZM147.756 90.5017L150.732 97.5097L154.414 95.9463L151.438 88.9383L147.756 90.5017ZM152.573 98.728H152.765V94.728H152.573V98.728ZM154.752 96.4987C154.56 94.8329 154.336 92.9114 154.08 90.7343L150.107 91.2017C150.363 93.3766 150.587 95.2951 150.778 96.9572L154.752 96.4987ZM154.08 90.7343C153.831 88.6253 153.709 86.6559 153.709 84.824H149.709C149.709 86.8321 149.843 88.9587 150.107 91.2017L154.08 90.7343ZM153.709 84.824V75.8H149.709V84.824H153.709ZM151.709 77.8H159.581V73.8H151.709V77.8ZM157.581 75.8V107H161.581V75.8H157.581ZM159.581 105H151.133V109H159.581V105ZM152.926 106.113L146.014 92.145L142.429 93.919L149.341 107.887L152.926 106.113ZM146.06 92.2457L143.084 85.2857L139.406 86.8583L142.382 93.8183L146.06 92.2457ZM141.245 84.072H141.053V88.072H141.245V84.072ZM139.065 86.2851C139.258 88.0877 139.483 90.0491 139.74 92.1687L143.711 91.6873C143.456 89.5829 143.233 87.6403 143.042 85.8589L139.065 86.2851ZM139.74 92.1687C139.987 94.2092 140.109 96.1445 140.109 97.976H144.109C144.109 95.9675 143.975 93.8708 143.711 91.6873L139.74 92.1687ZM140.109 97.976V107H144.109V97.976H140.109ZM142.109 105H134.237V109H142.109V105Z" fill="white" mask="url(#path-2-outside-1_145_5)"/>
</svg>
