<svg width="424" height="145" viewBox="0 0 424 145" fill="none" xmlns="http://www.w3.org/2000/svg">
<path d="M85 80C85 77.2386 87.2386 75 90 75H107.061C109.822 75 112.061 77.2386 112.061 80V118.385C112.061 120.897 112.388 123.08 113.044 124.933C113.731 126.754 114.667 128.277 115.853 129.502C117.07 130.695 118.49 131.59 120.113 132.187C121.736 132.784 123.484 133.082 125.357 133.082C127.417 133.082 129.258 132.784 130.881 132.187C132.536 131.59 133.94 130.68 135.095 129.455C136.25 128.23 137.139 126.691 137.764 124.839C138.388 122.986 138.7 120.803 138.7 118.291V80C138.7 77.2386 140.939 75 143.7 75H144C146.761 75 149 77.2386 149 80V116.689C149 121.023 148.298 124.933 146.893 128.419C145.52 131.904 143.554 134.888 140.994 137.369C138.435 139.818 135.345 141.703 131.724 143.022C128.104 144.341 124.062 145 119.598 145C113.512 145 108.284 144.356 103.914 143.069C99.5447 141.75 95.9554 139.881 93.1463 137.463C90.3372 135.013 88.2773 132.061 86.9664 128.607C85.6555 125.153 85 121.258 85 116.925V80Z" fill="white"/>
<path d="M255 5C255 2.23857 257.239 0 260 0H290.168C292.93 0 295.168 2.23858 295.168 5V43.3849C295.168 45.8973 295.655 48.0799 296.628 49.9327C297.647 51.7542 299.037 53.2773 300.797 54.502C302.604 55.6954 304.712 56.5904 307.121 57.1871C309.531 57.7838 312.125 58.0821 314.905 58.0821C317.963 58.0821 320.696 57.7838 323.105 57.1871C325.561 56.5904 327.646 55.6797 329.36 54.4549C331.074 53.2302 332.395 51.6914 333.321 49.8385C334.248 47.9857 334.711 45.8031 334.711 43.2907V5C334.711 2.23857 336.95 0 339.711 0H345C347.761 0 350 2.23858 350 5V41.6891C350 46.0229 348.958 49.9327 346.873 53.4186C344.834 56.9044 341.915 59.8878 338.116 62.3688C334.317 64.8183 329.731 66.7026 324.356 68.0215C318.982 69.3405 312.982 70 306.357 70C297.323 70 289.562 69.3562 283.076 68.0686C276.59 66.7497 271.262 64.8811 267.092 62.463C262.922 60.0135 259.865 57.0615 257.919 53.607C255.973 50.1525 255 46.2584 255 41.9246V5Z" fill="white"/>
<path d="M156 80C156 77.2386 158.239 75 161 75H184.753C192.847 75 199.859 75.7694 205.788 77.3082C211.718 78.8156 216.627 81.0453 220.518 83.9973C224.408 86.9493 227.294 90.5765 229.176 94.8789C231.059 99.1812 232 104.112 232 109.67C232 114.632 231.059 119.264 229.176 123.567C227.294 127.838 224.408 131.575 220.518 134.778C216.627 137.95 211.718 140.446 205.788 142.268C199.859 144.089 192.847 145 184.753 145H161C158.239 145 156 142.761 156 140V80ZM183.205 129.726C183.202 132.489 185.464 134.804 188.176 134.273C189.402 134.033 190.566 133.699 191.671 133.271C194.18 132.297 196.298 130.79 198.024 128.748C199.78 126.707 201.114 124.116 202.024 120.976C202.965 117.804 203.435 114.02 203.435 109.623C203.435 105.258 202.965 101.537 202.024 98.459C201.082 95.3814 199.733 92.869 197.976 90.9219C196.22 88.9435 194.086 87.5146 191.576 86.6353C190.511 86.2438 189.391 85.9365 188.215 85.7133C185.504 85.1985 183.245 87.5049 183.242 90.2644L183.224 110L183.205 129.726Z" fill="white"/>
<path d="M238.864 81.4457C237.932 78.246 240.332 75.0471 243.665 75.0471H262.663C265.012 75.0471 267.044 76.6815 267.547 78.9753L272.321 100.726C273.432 105.792 280.572 106.023 282.009 101.039L283.856 94.6286C284.077 93.8643 284.111 93.0586 283.958 92.2782L281.74 81.0127C281.132 77.923 283.497 75.0471 286.646 75.0471H306.146C308.532 75.0471 310.585 76.7329 311.05 79.0732L315.277 100.355C316.291 105.461 323.46 105.811 324.967 100.828L331.691 78.586C332.326 76.483 334.26 75.0413 336.457 75.0329L338.074 75.0267C341.484 75.0135 343.906 78.3419 342.845 81.5823L323.213 141.548C322.539 143.606 320.616 144.997 318.45 144.992L303.682 144.961C301.49 144.956 299.556 143.524 298.913 141.429L294.483 127.008C293.034 122.292 286.354 122.302 284.919 127.022L280.535 141.446C279.894 143.556 277.946 144.997 275.741 144.992L261.11 144.961C258.891 144.956 256.941 143.49 256.32 141.36L238.864 81.4457Z" fill="white"/>
<path d="M85 5C85 2.23858 87.2386 0 90 0H106.997C109.759 0 111.999 2.24061 111.997 5.00333L111.957 65.0033C111.955 67.7635 109.717 70 106.957 70H90C87.2386 70 85 67.7614 85 65V5Z" fill="white"/>
<path d="M350 111.121C350 107.797 350.424 104.599 351.273 101.526C352.152 98.4222 353.425 95.5375 355.09 92.8723C356.756 90.2072 358.798 87.7772 361.218 85.5823C363.637 83.3875 366.387 81.5062 369.466 79.9384C372.577 78.3707 376.002 77.1635 379.741 76.3169C383.481 75.439 387.503 75 391.808 75C394.573 75 397.212 75.1725 399.726 75.5174C402.271 75.8623 404.659 76.3483 406.89 76.9754C409.121 77.5711 411.18 78.2766 413.065 79.0918C413.491 79.2661 413.908 79.4427 414.315 79.6216C416.568 80.6107 417.365 83.3094 416.242 85.4984C415.104 87.717 412.403 88.605 410.017 87.8805C409.419 87.699 408.801 87.5287 408.163 87.3695C405.932 86.7738 403.607 86.4759 401.187 86.4759C397.951 86.4759 394.95 87.056 392.185 88.2161C389.42 89.3763 387.031 91.0224 385.02 93.1545C383.009 95.2867 381.423 97.8735 380.26 100.915C379.129 103.925 378.563 107.311 378.563 111.074C378.563 117.37 378.736 121.656 382.554 125.67C386.576 130.185 389.451 131 392.185 132.192C393.499 132.743 394.916 133.071 396.386 133.264C399.124 133.623 401.376 131.285 401.376 128.524V114.867C401.376 112.105 403.614 109.867 406.376 109.867H418.953C421.714 109.867 423.953 112.105 423.953 114.867V118.756V137.736C423.953 137.75 423.956 137.764 423.962 137.776C423.984 137.818 423.969 137.87 423.928 137.894C422.401 138.788 420.524 139.651 418.297 140.485C416.034 141.331 413.505 142.1 410.708 142.789C407.943 143.448 404.989 143.981 401.847 144.389C398.705 144.796 395.484 145 392.185 145C385.743 145 379.93 144.059 374.745 142.178C369.592 140.265 365.208 137.679 361.595 134.418C357.981 131.125 355.349 127.52 353.394 123.663C351.438 119.806 350 116.075 350 111.121Z" fill="white"/>
<path d="M360.099 57.2692C361.439 54.9896 364.296 54.207 366.721 55.2604C368.349 55.9675 370 56.5501 371.969 57.0084C375.594 57.8521 377.328 58.2271 380.453 58.2271C384.047 58.2271 386.672 57.7115 388.328 56.6802C390.016 55.649 390.859 54.2427 390.859 52.4615C390.859 51.899 390.75 51.3209 390.531 50.7271C390.344 50.1334 389.953 49.5552 389.359 48.9927C388.797 48.399 388 47.8209 386.969 47.2584C385.969 46.6646 384.656 46.0865 383.031 45.524L374.641 42.6646C369.065 40.7481 364.772 38.211 361.76 35.0533C361.308 34.5801 360.986 33.9984 360.777 33.3789C359.061 28.2881 359.061 28.5396 359.061 23.9615C359.061 20.8365 359.718 17.8365 361.03 14.9615C362.343 12.0552 364.327 9.50834 366.983 7.32083C369.639 5.10208 372.983 3.33646 377.014 2.02396C380.782 0.806724 389.818 0.153932 391.11 0.065581C391.217 0.0582655 391.318 0.0552317 391.425 0.0551369C398.698 0.0487037 406.06 -0.382391 413.203 1.274C415.391 1.774 417.391 2.35213 419.203 3.00838C421.821 3.91111 422.837 6.95524 421.495 9.37773L420.661 10.8844C419.716 12.5909 417.535 13.1337 415.734 12.3834C414.641 11.9146 413.531 11.524 412.406 11.2115C411.312 10.899 410.234 10.6646 409.172 10.5084C405.191 9.92298 401.35 10.3457 397.484 11.2115C394.912 11.7876 389.905 14.0145 389.905 17.399C389.905 18.0865 390.061 18.7583 390.374 19.4146C390.718 20.0396 391.28 20.6646 392.061 21.2896C392.874 21.8833 393.921 22.4927 395.202 23.1177C396.514 23.7115 398.139 24.3365 400.077 24.9927L405.702 26.8677C411.796 28.899 414.484 30.098 417.156 33.0552C419.828 36.0125 421.984 40.9302 421.984 45.9927C421.984 49.4302 421.203 52.6021 419.641 55.5084C418.109 58.4146 415.812 60.9302 412.75 63.0552C409.688 65.149 405.875 66.7896 401.312 67.9771C396.781 69.1333 392.969 69.7114 386.969 69.7114C384.094 69.7114 379.859 69.5552 377.172 69.2427C374.516 68.9615 373.547 68.5708 370.984 67.9771C368.453 67.3833 365.953 66.6333 363.484 65.7271C362.866 65.5001 362.305 65.2632 361.774 65.0166C359.138 63.7942 358.254 60.4071 359.726 57.903L360.099 57.2692Z" fill="white"/>
<path fill-rule="evenodd" clip-rule="evenodd" d="M5 0C2.23858 0 0 2.23858 0 5.00001V140.117C0 142.879 2.23858 145 5 145H119C121.761 145 111.914 142.879 111.914 140.117V127.754C111.914 124.993 109.675 122.754 106.914 122.754H61.4493C58.6863 122.754 56.4471 120.513 56.4493 117.75L56.539 5.00398C56.5412 2.241 54.302 0 51.539 0H5ZM11.9951 6.75C9.23369 6.75 6.99512 8.98858 6.99512 11.75V132.86C6.99512 135.621 9.2337 137.86 11.9951 137.86H100.735C103.044 137.86 104.915 135.989 104.915 133.68C104.915 131.371 103.044 129.5 100.735 129.5H77.5901H54.4451C51.6837 129.5 49.4451 127.261 49.4451 124.5V11.75C49.4451 8.98858 47.2065 6.75 44.4451 6.75H11.9951Z" fill="white"/>
<path d="M139 5C139 2.23858 141.239 0 144 0H162.82C163.689 0 164.542 0.226258 165.297 0.656488L222.188 33.0959C225.518 34.9945 229.658 32.5946 229.665 28.7617L229.709 4.9907C229.714 2.23291 231.951 0 234.709 0H240C242.761 0 245 2.23858 245 5V65.0784C245 67.8398 242.761 70.0784 240 70.0784H221.088C220.278 70.0784 219.48 69.8817 218.763 69.5051L156.325 36.7163C152.995 34.968 149 37.3826 149 41.1431V65.0784C149 67.8398 146.761 70.0784 144 70.0784C141.239 70.0784 139 67.8398 139 65.0784L139 5Z" fill="white"/>
</svg>
